<svg width="118" height="117" viewBox="0 0 118 117" fill="none" xmlns="http://www.w3.org/2000/svg">
<path d="M58.549 21.7777C69.5868 21.7777 79.4873 26.6397 86.2252 34.3344L106.79 25.3419C96.2311 10.0348 78.5612 0.000366211 58.549 0.000366211C26.2145 0.000366211 0 26.1929 0 58.5002C0 62.9383 0.495696 67.2594 1.43003 71.4129L22.0037 62.4171C22.8155 70.0693 25.9782 77.021 30.7589 82.5352L10.1714 91.4593C20.7156 106.88 38.4487 117 58.549 117C90.8836 117 117.098 90.8076 117.098 58.5002C117.098 54.1079 116.614 49.8263 115.694 45.7098L95.1005 54.6399C95.2342 55.9097 95.3025 57.1963 95.3025 58.5002C95.3025 78.7804 78.8462 95.2228 58.549 95.2228C47.4517 95.2228 37.4997 90.3063 30.7589 82.5352L74.7574 63.459C73.4071 53.5098 69.3471 46.9254 66.1333 43.1197L22.0037 62.4171C21.8669 61.1305 21.7956 59.824 21.7956 58.5002C21.7956 38.2201 38.2518 21.7777 58.549 21.7777Z" fill="url(#paint0_linear_27_13)"/>
<defs>
<linearGradient id="paint0_linear_27_13" x1="0.585101" y1="50.1996" x2="146.298" y2="146.362" gradientUnits="userSpaceOnUse">
<stop stop-color="#B906FF"/>
<stop offset="0.509804" stop-color="#930BED"/>
<stop offset="1" stop-color="#6C11DB"/>
</linearGradient>
</defs>
</svg>
